<?xml version="1.0" standalone="no"?>
<!DOCTYPE svg PUBLIC "-//W3C//DTD SVG 20010904//EN"
 "http://www.w3.org/TR/2001/REC-SVG-20010904/DTD/svg10.dtd">
<svg version="1.0" xmlns="http://www.w3.org/2000/svg"
 width="320.000000pt" height="320.000000pt" viewBox="0 0 320.000000 320.000000"
 preserveAspectRatio="xMidYMid meet">
<metadata>
Created by potrace 1.14, written by Peter Selinger 2001-2017
</metadata>
<g transform="translate(0.000000,320.000000) scale(0.100000,-0.100000)"
fill="#000000" stroke="none">
<path d="M2227 3079 c-83 -20 -169 -105 -188 -186 -5 -21 -9 -157 -9 -303 -1
-191 -4 -258 -12 -240 -55 135 -109 179 -228 185 -57 3 -76 0 -119 -21 -70
-35 -123 -119 -146 -230 l-6 -32 -46 44 c-25 24 -53 44 -62 44 -9 0 -23 6 -29
12 -14 14 -138 18 -186 6 -17 -4 -51 -21 -78 -37 l-48 -30 -1 97 c-1 53 -3
106 -4 117 -7 68 -101 172 -173 193 -59 18 -144 15 -194 -7 -79 -35 -141 -110
-154 -187 -10 -52 -10 -1344 -1 -1463 4 -52 10 -97 12 -101 2 -4 7 -22 10 -41
18 -109 100 -295 171 -389 67 -88 149 -166 239 -225 46 -30 86 -55 89 -55 3 0
31 -12 63 -26 31 -15 62 -27 67 -28 6 -1 17 -5 24 -9 6 -5 12 -6 12 -2 0 3 8
1 18 -4 9 -5 34 -12 56 -15 21 -4 41 -8 45 -10 13 -8 140 -19 236 -21 117 -1
232 16 330 51 39 14 75 26 80 27 6 1 12 4 15 7 3 3 25 16 50 29 88 46 200 142
260 221 14 18 42 51 64 74 96 102 171 249 222 436 21 76 25 91 29 125 2 17 4
30 5 30 8 0 24 224 24 320 -1 106 -21 176 -68 238 l-33 43 0 579 0 580 -27 57
c-56 118 -182 178 -309 147z"/>
</g>
</svg>
